<mxfile host="app.diagrams.net" modified="2021-11-08T04:00:40.369Z" agent="5.0 (Macintosh; Intel Mac OS X 10_15_7) AppleWebKit/605.1.15 (KHTML, like Gecko) Version/15.1 Safari/605.1.15" etag="2qLs1zHHLM6BTq6RgTbZ" version="15.7.0" type="github">
  <diagram id="0QAFxWIupp4AqhkaJ0dr" name="Page-1">
    <mxGraphModel dx="2066" dy="825" grid="1" gridSize="10" guides="1" tooltips="1" connect="1" arrows="1" fold="1" page="1" pageScale="1" pageWidth="827" pageHeight="1169" math="0" shadow="0">
      <root>
        <mxCell id="0" />
        <mxCell id="1" parent="0" />
        <mxCell id="dBeinpllPkNDXC_b3IiZ-1" value="" style="edgeStyle=orthogonalEdgeStyle;rounded=0;orthogonalLoop=1;jettySize=auto;html=1;" edge="1" parent="1" source="dBeinpllPkNDXC_b3IiZ-2" target="dBeinpllPkNDXC_b3IiZ-6">
          <mxGeometry relative="1" as="geometry" />
        </mxCell>
        <mxCell id="dBeinpllPkNDXC_b3IiZ-2" value="Vérification disponibilité" style="rounded=1;whiteSpace=wrap;html=1;" vertex="1" parent="1">
          <mxGeometry x="477.5" y="130" width="120" height="60" as="geometry" />
        </mxCell>
        <mxCell id="dBeinpllPkNDXC_b3IiZ-3" value="" style="edgeStyle=orthogonalEdgeStyle;rounded=0;orthogonalLoop=1;jettySize=auto;html=1;" edge="1" parent="1" source="dBeinpllPkNDXC_b3IiZ-6" target="dBeinpllPkNDXC_b3IiZ-7">
          <mxGeometry relative="1" as="geometry" />
        </mxCell>
        <mxCell id="dBeinpllPkNDXC_b3IiZ-4" value="" style="edgeStyle=orthogonalEdgeStyle;rounded=0;orthogonalLoop=1;jettySize=auto;html=1;" edge="1" parent="1" source="dBeinpllPkNDXC_b3IiZ-6" target="dBeinpllPkNDXC_b3IiZ-10">
          <mxGeometry relative="1" as="geometry" />
        </mxCell>
        <mxCell id="dBeinpllPkNDXC_b3IiZ-5" style="edgeStyle=orthogonalEdgeStyle;rounded=0;orthogonalLoop=1;jettySize=auto;html=1;entryX=0.5;entryY=0;entryDx=0;entryDy=0;" edge="1" parent="1" source="dBeinpllPkNDXC_b3IiZ-6" target="dBeinpllPkNDXC_b3IiZ-22">
          <mxGeometry relative="1" as="geometry" />
        </mxCell>
        <mxCell id="dBeinpllPkNDXC_b3IiZ-6" value="" style="rhombus;whiteSpace=wrap;html=1;rounded=1;arcSize=0;" vertex="1" parent="1">
          <mxGeometry x="525" y="220" width="25" height="20" as="geometry" />
        </mxCell>
        <mxCell id="dBeinpllPkNDXC_b3IiZ-7" value="Rajouter délai" style="whiteSpace=wrap;html=1;rounded=1;arcSize=0;" vertex="1" parent="1">
          <mxGeometry x="592.5" y="215" width="70" height="30" as="geometry" />
        </mxCell>
        <mxCell id="dBeinpllPkNDXC_b3IiZ-8" value="" style="edgeStyle=orthogonalEdgeStyle;rounded=0;orthogonalLoop=1;jettySize=auto;html=1;" edge="1" parent="1" source="dBeinpllPkNDXC_b3IiZ-10" target="dBeinpllPkNDXC_b3IiZ-12">
          <mxGeometry relative="1" as="geometry" />
        </mxCell>
        <mxCell id="dBeinpllPkNDXC_b3IiZ-9" value="" style="edgeStyle=orthogonalEdgeStyle;rounded=0;orthogonalLoop=1;jettySize=auto;html=1;" edge="1" parent="1" source="dBeinpllPkNDXC_b3IiZ-10" target="dBeinpllPkNDXC_b3IiZ-14">
          <mxGeometry relative="1" as="geometry" />
        </mxCell>
        <mxCell id="dBeinpllPkNDXC_b3IiZ-10" value="" style="rhombus;whiteSpace=wrap;html=1;rounded=1;arcSize=0;" vertex="1" parent="1">
          <mxGeometry x="525" y="270" width="25" height="20" as="geometry" />
        </mxCell>
        <mxCell id="dBeinpllPkNDXC_b3IiZ-11" style="edgeStyle=orthogonalEdgeStyle;rounded=0;orthogonalLoop=1;jettySize=auto;html=1;" edge="1" parent="1" source="dBeinpllPkNDXC_b3IiZ-12">
          <mxGeometry relative="1" as="geometry">
            <mxPoint x="627.5" y="370" as="targetPoint" />
          </mxGeometry>
        </mxCell>
        <mxCell id="dBeinpllPkNDXC_b3IiZ-12" value="Réalisation de prototype" style="whiteSpace=wrap;html=1;rounded=1;arcSize=0;" vertex="1" parent="1">
          <mxGeometry x="592.5" y="265" width="70" height="30" as="geometry" />
        </mxCell>
        <mxCell id="dBeinpllPkNDXC_b3IiZ-13" style="edgeStyle=orthogonalEdgeStyle;rounded=0;orthogonalLoop=1;jettySize=auto;html=1;" edge="1" parent="1" source="dBeinpllPkNDXC_b3IiZ-14">
          <mxGeometry relative="1" as="geometry">
            <mxPoint x="432.49999999999955" y="370" as="targetPoint" />
          </mxGeometry>
        </mxCell>
        <mxCell id="dBeinpllPkNDXC_b3IiZ-14" value="Réalisation d&#39;une présérie" style="whiteSpace=wrap;html=1;rounded=1;arcSize=0;" vertex="1" parent="1">
          <mxGeometry x="387.5" y="262.5" width="90" height="35" as="geometry" />
        </mxCell>
        <mxCell id="dBeinpllPkNDXC_b3IiZ-15" value="" style="endArrow=none;html=1;rounded=0;" edge="1" parent="1">
          <mxGeometry width="50" height="50" relative="1" as="geometry">
            <mxPoint x="422.49999999999955" y="370" as="sourcePoint" />
            <mxPoint x="642.5" y="370" as="targetPoint" />
          </mxGeometry>
        </mxCell>
        <mxCell id="dBeinpllPkNDXC_b3IiZ-16" value="" style="endArrow=classic;html=1;rounded=0;" edge="1" parent="1">
          <mxGeometry width="50" height="50" relative="1" as="geometry">
            <mxPoint x="535.5" y="370" as="sourcePoint" />
            <mxPoint x="535.5" y="400" as="targetPoint" />
          </mxGeometry>
        </mxCell>
        <mxCell id="dBeinpllPkNDXC_b3IiZ-17" value="" style="edgeStyle=orthogonalEdgeStyle;rounded=0;orthogonalLoop=1;jettySize=auto;html=1;" edge="1" parent="1" source="dBeinpllPkNDXC_b3IiZ-18" target="dBeinpllPkNDXC_b3IiZ-20">
          <mxGeometry relative="1" as="geometry" />
        </mxCell>
        <mxCell id="dBeinpllPkNDXC_b3IiZ-18" value="Laquage" style="rounded=1;whiteSpace=wrap;html=1;" vertex="1" parent="1">
          <mxGeometry x="482.5" y="400" width="100" height="20" as="geometry" />
        </mxCell>
        <mxCell id="dBeinpllPkNDXC_b3IiZ-19" style="edgeStyle=orthogonalEdgeStyle;rounded=0;orthogonalLoop=1;jettySize=auto;html=1;entryX=1;entryY=0.5;entryDx=0;entryDy=0;" edge="1" parent="1" source="dBeinpllPkNDXC_b3IiZ-20" target="dBeinpllPkNDXC_b3IiZ-22">
          <mxGeometry relative="1" as="geometry" />
        </mxCell>
        <mxCell id="dBeinpllPkNDXC_b3IiZ-20" value="Décapage à l&#39;acide" style="whiteSpace=wrap;html=1;rounded=1;" vertex="1" parent="1">
          <mxGeometry x="472.5" y="480" width="120" height="60" as="geometry" />
        </mxCell>
        <mxCell id="dBeinpllPkNDXC_b3IiZ-21" value="" style="edgeStyle=orthogonalEdgeStyle;rounded=0;orthogonalLoop=1;jettySize=auto;html=1;entryX=0;entryY=0.5;entryDx=0;entryDy=0;" edge="1" parent="1" source="dBeinpllPkNDXC_b3IiZ-22" target="dBeinpllPkNDXC_b3IiZ-24">
          <mxGeometry relative="1" as="geometry">
            <Array as="points">
              <mxPoint x="312.5" y="585" />
            </Array>
          </mxGeometry>
        </mxCell>
        <mxCell id="dBeinpllPkNDXC_b3IiZ-22" value="" style="rhombus;whiteSpace=wrap;html=1;rounded=1;arcSize=0;" vertex="1" parent="1">
          <mxGeometry x="300" y="500" width="25" height="20" as="geometry" />
        </mxCell>
        <mxCell id="dBeinpllPkNDXC_b3IiZ-23" style="edgeStyle=orthogonalEdgeStyle;rounded=0;orthogonalLoop=1;jettySize=auto;html=1;entryX=0.5;entryY=0;entryDx=0;entryDy=0;" edge="1" parent="1" source="dBeinpllPkNDXC_b3IiZ-24" target="dBeinpllPkNDXC_b3IiZ-28">
          <mxGeometry relative="1" as="geometry" />
        </mxCell>
        <mxCell id="dBeinpllPkNDXC_b3IiZ-24" value="Conditionnement" style="whiteSpace=wrap;html=1;rounded=1;arcSize=0;" vertex="1" parent="1">
          <mxGeometry x="477.5" y="570" width="100" height="30" as="geometry" />
        </mxCell>
        <mxCell id="dBeinpllPkNDXC_b3IiZ-25" value="" style="edgeStyle=orthogonalEdgeStyle;rounded=0;orthogonalLoop=1;jettySize=auto;html=1;" edge="1" parent="1" source="dBeinpllPkNDXC_b3IiZ-28" target="dBeinpllPkNDXC_b3IiZ-30">
          <mxGeometry relative="1" as="geometry" />
        </mxCell>
        <mxCell id="dBeinpllPkNDXC_b3IiZ-26" value="" style="edgeStyle=orthogonalEdgeStyle;rounded=0;orthogonalLoop=1;jettySize=auto;html=1;" edge="1" parent="1" source="dBeinpllPkNDXC_b3IiZ-28" target="dBeinpllPkNDXC_b3IiZ-32">
          <mxGeometry relative="1" as="geometry" />
        </mxCell>
        <mxCell id="dBeinpllPkNDXC_b3IiZ-27" style="edgeStyle=orthogonalEdgeStyle;rounded=0;orthogonalLoop=1;jettySize=auto;html=1;entryX=0.5;entryY=0;entryDx=0;entryDy=0;" edge="1" parent="1" source="dBeinpllPkNDXC_b3IiZ-28" target="dBeinpllPkNDXC_b3IiZ-34">
          <mxGeometry relative="1" as="geometry" />
        </mxCell>
        <mxCell id="dBeinpllPkNDXC_b3IiZ-28" value="" style="rhombus;whiteSpace=wrap;html=1;rounded=1;arcSize=0;" vertex="1" parent="1">
          <mxGeometry x="515" y="634" width="25" height="20" as="geometry" />
        </mxCell>
        <mxCell id="dBeinpllPkNDXC_b3IiZ-29" style="edgeStyle=orthogonalEdgeStyle;rounded=0;orthogonalLoop=1;jettySize=auto;html=1;" edge="1" parent="1" source="dBeinpllPkNDXC_b3IiZ-30">
          <mxGeometry relative="1" as="geometry">
            <mxPoint x="527.5" y="770" as="targetPoint" />
          </mxGeometry>
        </mxCell>
        <mxCell id="dBeinpllPkNDXC_b3IiZ-30" value="Réalisation BAT échantillon" style="whiteSpace=wrap;html=1;rounded=1;arcSize=0;" vertex="1" parent="1">
          <mxGeometry x="478.75" y="680" width="97.5" height="30" as="geometry" />
        </mxCell>
        <mxCell id="dBeinpllPkNDXC_b3IiZ-31" style="edgeStyle=orthogonalEdgeStyle;rounded=0;orthogonalLoop=1;jettySize=auto;html=1;" edge="1" parent="1" source="dBeinpllPkNDXC_b3IiZ-32">
          <mxGeometry relative="1" as="geometry">
            <mxPoint x="717.5" y="770" as="targetPoint" />
          </mxGeometry>
        </mxCell>
        <mxCell id="dBeinpllPkNDXC_b3IiZ-32" value="Réalisation BAT papier" style="whiteSpace=wrap;html=1;rounded=1;arcSize=0;" vertex="1" parent="1">
          <mxGeometry x="672.5" y="680" width="90" height="30" as="geometry" />
        </mxCell>
        <mxCell id="dBeinpllPkNDXC_b3IiZ-33" style="edgeStyle=orthogonalEdgeStyle;rounded=0;orthogonalLoop=1;jettySize=auto;html=1;" edge="1" parent="1" source="dBeinpllPkNDXC_b3IiZ-34">
          <mxGeometry relative="1" as="geometry">
            <mxPoint x="371.24999999999955" y="770" as="targetPoint" />
          </mxGeometry>
        </mxCell>
        <mxCell id="dBeinpllPkNDXC_b3IiZ-34" value="Etude du projet décor" style="whiteSpace=wrap;html=1;rounded=1;arcSize=0;" vertex="1" parent="1">
          <mxGeometry x="322.5" y="680" width="97.5" height="30" as="geometry" />
        </mxCell>
        <mxCell id="dBeinpllPkNDXC_b3IiZ-35" value="" style="endArrow=none;html=1;rounded=0;" edge="1" parent="1">
          <mxGeometry width="50" height="50" relative="1" as="geometry">
            <mxPoint x="362.49999999999955" y="770" as="sourcePoint" />
            <mxPoint x="732.5" y="770" as="targetPoint" />
          </mxGeometry>
        </mxCell>
        <mxCell id="dBeinpllPkNDXC_b3IiZ-36" value="" style="endArrow=classic;html=1;rounded=0;" edge="1" parent="1">
          <mxGeometry width="50" height="50" relative="1" as="geometry">
            <mxPoint x="527" y="770" as="sourcePoint" />
            <mxPoint x="527" y="800" as="targetPoint" />
          </mxGeometry>
        </mxCell>
        <mxCell id="dBeinpllPkNDXC_b3IiZ-37" value="" style="edgeStyle=orthogonalEdgeStyle;rounded=0;orthogonalLoop=1;jettySize=auto;html=1;" edge="1" parent="1" source="dBeinpllPkNDXC_b3IiZ-38" target="dBeinpllPkNDXC_b3IiZ-40">
          <mxGeometry relative="1" as="geometry" />
        </mxCell>
        <mxCell id="dBeinpllPkNDXC_b3IiZ-38" value="décor" style="whiteSpace=wrap;html=1;rounded=1;arcSize=0;" vertex="1" parent="1">
          <mxGeometry x="482.5" y="800" width="97.5" height="30" as="geometry" />
        </mxCell>
        <mxCell id="dBeinpllPkNDXC_b3IiZ-39" value="" style="edgeStyle=orthogonalEdgeStyle;rounded=0;orthogonalLoop=1;jettySize=auto;html=1;" edge="1" parent="1" source="dBeinpllPkNDXC_b3IiZ-40" target="dBeinpllPkNDXC_b3IiZ-42">
          <mxGeometry relative="1" as="geometry" />
        </mxCell>
        <mxCell id="dBeinpllPkNDXC_b3IiZ-40" value="Coupure de tubes" style="whiteSpace=wrap;html=1;rounded=1;arcSize=0;" vertex="1" parent="1">
          <mxGeometry x="482.5" y="870" width="97.5" height="30" as="geometry" />
        </mxCell>
        <mxCell id="dBeinpllPkNDXC_b3IiZ-41" value="" style="edgeStyle=orthogonalEdgeStyle;rounded=0;orthogonalLoop=1;jettySize=auto;html=1;" edge="1" parent="1" source="dBeinpllPkNDXC_b3IiZ-42" target="dBeinpllPkNDXC_b3IiZ-44">
          <mxGeometry relative="1" as="geometry" />
        </mxCell>
        <mxCell id="dBeinpllPkNDXC_b3IiZ-42" value="Éventuel approvisionnement des couleur de capuchons" style="whiteSpace=wrap;html=1;rounded=1;arcSize=0;" vertex="1" parent="1">
          <mxGeometry x="471.25" y="965" width="120" height="60" as="geometry" />
        </mxCell>
        <mxCell id="dBeinpllPkNDXC_b3IiZ-43" value="" style="edgeStyle=orthogonalEdgeStyle;rounded=0;orthogonalLoop=1;jettySize=auto;html=1;" edge="1" parent="1" source="dBeinpllPkNDXC_b3IiZ-44" target="dBeinpllPkNDXC_b3IiZ-45">
          <mxGeometry relative="1" as="geometry" />
        </mxCell>
        <mxCell id="dBeinpllPkNDXC_b3IiZ-44" value="Capot" style="whiteSpace=wrap;html=1;rounded=1;arcSize=0;" vertex="1" parent="1">
          <mxGeometry x="486.25" y="1070" width="91.25" height="20" as="geometry" />
        </mxCell>
        <mxCell id="dBeinpllPkNDXC_b3IiZ-45" value="" style="ellipse;whiteSpace=wrap;html=1;rounded=1;arcSize=0;fillColor=#000000;" vertex="1" parent="1">
          <mxGeometry x="520.9300000000001" y="1130" width="20.63" height="20" as="geometry" />
        </mxCell>
        <mxCell id="dBeinpllPkNDXC_b3IiZ-46" value="" style="edgeStyle=orthogonalEdgeStyle;rounded=0;orthogonalLoop=1;jettySize=auto;html=1;" edge="1" parent="1" source="dBeinpllPkNDXC_b3IiZ-47" target="dBeinpllPkNDXC_b3IiZ-2">
          <mxGeometry relative="1" as="geometry" />
        </mxCell>
        <mxCell id="dBeinpllPkNDXC_b3IiZ-47" value="" style="ellipse;whiteSpace=wrap;html=1;rounded=1;arcSize=0;fillColor=#000000;" vertex="1" parent="1">
          <mxGeometry x="527.1800000000001" y="80" width="20.63" height="20" as="geometry" />
        </mxCell>
        <mxCell id="dBeinpllPkNDXC_b3IiZ-48" value="" style="endArrow=none;dashed=1;html=1;dashPattern=1 3;strokeWidth=2;rounded=0;" edge="1" parent="1">
          <mxGeometry width="50" height="50" relative="1" as="geometry">
            <mxPoint x="102.49999999999955" y="50" as="sourcePoint" />
            <mxPoint x="922.5000000000005" y="50" as="targetPoint" />
          </mxGeometry>
        </mxCell>
        <mxCell id="dBeinpllPkNDXC_b3IiZ-49" value="" style="endArrow=none;dashed=1;html=1;dashPattern=1 3;strokeWidth=2;rounded=0;" edge="1" parent="1">
          <mxGeometry width="50" height="50" relative="1" as="geometry">
            <mxPoint x="102.49999999999955" y="1190" as="sourcePoint" />
            <mxPoint x="922.5000000000009" y="1190" as="targetPoint" />
          </mxGeometry>
        </mxCell>
        <mxCell id="dBeinpllPkNDXC_b3IiZ-50" value="" style="endArrow=none;dashed=1;html=1;dashPattern=1 3;strokeWidth=2;rounded=0;" edge="1" parent="1">
          <mxGeometry width="50" height="50" relative="1" as="geometry">
            <mxPoint x="922.5" y="1181.1799999999998" as="sourcePoint" />
            <mxPoint x="922.5" y="50.0035294117647" as="targetPoint" />
          </mxGeometry>
        </mxCell>
        <mxCell id="dBeinpllPkNDXC_b3IiZ-51" value="" style="endArrow=none;dashed=1;html=1;dashPattern=1 3;strokeWidth=2;rounded=0;" edge="1" parent="1">
          <mxGeometry width="50" height="50" relative="1" as="geometry">
            <mxPoint x="102.49999999999955" y="1181.1799999999998" as="sourcePoint" />
            <mxPoint x="102.49999999999955" y="50.0035294117647" as="targetPoint" />
          </mxGeometry>
        </mxCell>
      </root>
    </mxGraphModel>
  </diagram>
</mxfile>
